<?xml version="1.0" encoding="UTF-8"?>
<svg width="420px" height="120px" viewBox="0 0 420 120" version="1.1" xmlns="http://www.w3.org/2000/svg" xmlns:xlink="http://www.w3.org/1999/xlink">
    <title>dussehra copy</title>
    <g id="Archive" stroke="none" stroke-width="1" fill="none" fill-rule="evenodd">
        <g id="dussehra-copy" fill-rule="nonzero">
            <polygon id="Mask" fill="#FF6464" points="0 0 420 0 420 120 0 120"></polygon>
            <g id="navarathri" opacity="0.7" transform="translate(306.000000, 12.000000)">
                <path d="M100,22.5 C99.7022051,23.686533 99.0238946,24.609392 98.2959516,25.4828121 C98.0312451,25.795925 97.7334502,26.0760786 97.7334502,26.5704674 C97.7334502,31.7121104 95.6819745,36.0956906 92.6709375,40.1167191 C89.6102681,44.2036661 85.44114,46.6426506 80.5937014,48.1587761 C75.0844964,49.8726571 69.5422031,50.6307198 63.8510124,49.3782683 C60.2112974,48.5872463 60.2609298,48.603726 61.9153457,45.4231583 C63.6359383,42.1107537 65.4061633,38.8642676 68.0035963,36.1286499 C71.510958,32.4207342 75.6966303,30.3443015 80.8749521,29.9652701 C86.4007012,29.5532795 91.6948321,28.1195521 96.4430058,25.1202604 C97.6838177,24.3292384 98.7922764,23.3734201 100,22.5 Z M82.5955446,44.1047883 C89.8749746,42.3414685 97.9981567,32.651449 97.402567,26.5045489 C93.1672623,30.7068532 87.9062197,32.6184897 82.1488523,33.6567061 C85.755479,36.6724775 85.8051115,40.9901392 82.5955446,44.1047883 Z M72.3712543,36.8537534 C69.426394,38.979625 67.1102117,41.3856502 64.8436619,44.0388698 C68.5495535,45.4725972 72.2719893,45.6538731 76.1267784,45.2583621 C72.8841232,43.3961645 71.4282372,40.7759041 72.3712543,36.8537534 Z M78.4595049,36.7548756 C77.2021488,36.7713552 76.1929551,37.7766124 76.1764109,39.0290638 C76.1598667,40.297995 77.2517812,41.3691706 78.5256815,41.352691 C79.7499493,41.3362113 80.7922313,40.297995 80.8087754,39.0620231 C80.8087754,37.7766124 79.7499493,36.738396 78.4595049,36.7548756 Z" id="Shape" fill="#052F51"></path>
                <path d="M0,22.5272218 C0.366734789,22.4449931 0.53343242,22.5601133 0.700130051,22.7245708 C4.76755225,26.5235388 9.78515096,28.3161254 15.1528147,29.4015448 C17.453242,29.8620258 19.7870088,30.0100375 22.1041059,30.3389525 C27.0716953,31.0625655 30.6890339,33.9570172 33.7896099,37.6244192 C36.3567534,40.6668828 37.9237111,44.3013933 39.8740734,47.7056633 C40.257478,48.379939 39.6740362,48.379939 39.340641,48.5279507 C35.9733488,49.8929479 32.4560288,50.1560799 28.8886995,49.9258394 C24.5212216,49.6627074 20.2871017,48.6759625 16.3530376,46.8340386 C7.83478867,42.8541674 3.28394334,36.0785188 2.533804,26.8195622 C2.50046447,26.3426355 2.36710636,25.9643833 2.05038086,25.6025768 C1.21689271,24.6980606 0.53343242,23.6784242 0,22.5272218 Z M17.6699489,44.054707 C14.6193823,41.0615807 14.5193637,36.785686 18.1867116,33.6609938 C12.4189735,32.6413573 7.11798885,30.700759 2.80052021,26.507093 C2.71717139,33.2991873 10.8686856,42.8377216 17.6699489,44.054707 Z M23.8210915,45.3210297 C28.0552113,45.6663904 31.8725871,45.5183787 35.6732931,44.054707 C33.3728658,41.3904957 31.0224292,38.9729706 28.1052206,36.917252 C28.9720483,40.8313403 27.588458,43.5284431 23.8210915,45.3210297 Z M21.9374083,36.7692403 C20.687176,36.7363488 19.6203112,37.7395395 19.5703019,38.9729706 C19.5202926,40.2392933 20.5871575,41.3576042 21.8540595,41.37405 C23.0876219,41.3904957 24.1878263,40.3708593 24.2211658,39.1538739 C24.2878449,37.8546597 23.2543196,36.785686 21.9374083,36.7692403 Z" id="Shape" fill="#052F51"></path>
                <path d="M53.4490604,65 C52.8052625,52.5061728 54.7696716,40.6213992 61.306697,29.7407407 C64.9713931,23.6502058 70.5179601,20.2592593 77.2860924,18.6296296 C81.3799871,17.6419753 85.5068971,16.7860082 89.5842842,15.7654321 C92.6051823,15.0082305 95.4444963,13.8065844 97.8876271,11.8312757 C97.9536576,11.781893 98.0527035,11.7654321 98.3333333,11.6666667 C96.9962145,13.4279835 95.4279887,14.6296296 93.6946865,15.6337449 C90.2445898,17.6584362 86.431325,18.7613169 82.6180601,19.8971193 C80.0263607,20.6707819 77.4511688,21.4773663 74.9089923,22.4320988 C69.0322725,24.6049383 65.2190077,28.9506173 62.363186,34.3004115 C58.41786,41.7078189 56.172821,49.6748971 54.5880876,57.8559671 C54.1753966,60.2263374 53.8452438,62.6296296 53.4490604,65 Z" id="Path" fill="#072E4F"></path>
                <path d="M48.1242102,64.1666667 C47.2657046,58.8143145 46.2255921,53.5440537 44.7397171,48.3723024 C43.0557254,42.4781477 40.9094615,36.7810122 37.6570462,31.5107513 C34.6192573,26.5852739 30.3597489,23.2687858 24.8620113,21.5120322 C20.8831682,20.231408 16.8878154,19.0328752 12.925482,17.7029963 C9.80514451,16.6522278 6.89943337,15.1910028 4.47250418,12.9088649 C4.09278056,12.5476633 3.74607639,12.1536251 3.33333333,11.7267503 C3.51494028,11.6939138 3.64701806,11.6446591 3.71305695,11.6774956 C7.26264726,14.4193447 11.4726265,15.5029497 15.7321348,16.4552087 C19.7109779,17.3417946 23.7063308,18.0970345 27.5861155,19.3776586 C34.4211406,21.62696 38.8292365,26.4046731 41.9825935,32.5779381 C45.3010477,39.0795683 47.0840977,46.0080732 47.8930741,53.2156885 C48.2893074,56.6635227 48.4874241,60.1113569 48.1902491,63.5756094 C48.1902491,63.7562102 48.1572296,63.9696476 48.1242102,64.1666667 Z" id="Path" fill="#072E4F"></path>
                <path d="M67.3085473,79.1666667 C63.4299055,79.0322033 60.353177,77.5362989 57.9638028,74.5781059 C57.5873945,74.1074842 57.2600829,73.5864389 57.8328781,73.0822014 C58.4220389,72.577964 58.8311784,72.9981618 59.2075866,73.4855914 C63.839045,79.2338983 72.0872958,78.6624292 75.8677442,72.3258452 C76.145959,71.8552236 76.0641311,71.3677941 76.1132278,70.8635566 C76.260518,69.5357313 75.7368195,68.4600248 75.3440457,67.3002786 C75.294949,67.1490074 75.2785834,66.9136966 75.3604113,66.7792333 C76.0804967,65.5690634 75.9168409,64.2076223 76.145959,62.8966049 C76.2277869,62.4259833 76.0150343,62.1402487 75.8513786,61.8208983 C72.5128008,55.6860093 64.068163,54.9128453 59.4694359,60.308186 C59.3548768,60.4426493 59.2403178,60.5771126 59.1421243,60.7283839 C58.7820816,61.2158134 58.3565766,61.501548 57.8165126,61.0645422 C57.2600829,60.6107285 57.5382978,60.0896831 57.8819749,59.6526773 C58.5693291,58.7954736 59.3221457,57.9886937 60.2058868,57.333185 C65.9502044,53.1312063 73.6256601,54.761574 77.2751838,60.9636947 C77.5861298,61.48474 77.8316134,62.0057854 78.4535053,62.2410962 C78.8626448,62.4091754 79.2554186,62.8125653 79.239053,63.2999949 C79.2063219,64.1908144 79.6645581,64.7454756 80.2046221,65.3673684 C81.1865567,66.5439225 80.9901698,68.1238665 79.8118482,69.199573 C79.4845367,69.5021155 79.2881498,69.7206184 79.3699777,70.2584717 C79.4845367,71.0148279 79.124494,71.6871445 78.388043,71.9560711 C77.8643446,72.1409582 77.6515921,72.5443481 77.4061084,72.9813539 C75.098562,76.9648298 71.6290597,78.9313559 67.3085473,79.1666667 Z M79.9100417,67.031352 C79.9100417,65.9556454 79.2063219,65.1992893 78.1752905,65.1824813 C77.1606247,65.1824813 76.2932492,66.0228771 76.2932492,67.0481599 C76.2768836,68.0398269 77.0951624,68.8802227 78.0770971,68.8970306 C79.1408596,68.9306464 79.9100417,68.1406744 79.9100417,67.031352 Z" id="Shape" fill="#F8DB7F"></path>
                <path d="M59.7404275,62.6530652 C61.4199034,64.6939344 61.1590139,67.7382309 58.9903703,68.9967669 C57.2945887,69.9661797 56.006447,71.0716505 54.8813612,72.8233965 C52.6311896,76.3268886 47.3807891,75.4084975 45.8643691,71.4458099 C45.5545628,70.6634767 45.1795342,70.2042811 44.4131714,70.0001942 C44.0544484,69.915158 43.712031,69.7110711 43.3696136,69.5239914 C40.6465798,68.0443612 40.0758841,65.5613038 41.8531935,62.5 C41.9184159,63.4013839 41.9510271,64.1837171 42.0488606,64.9660502 C42.195611,66.0545138 42.7336955,66.8198397 43.8098645,67.1259701 C44.7882,67.398086 45.7665355,67.7212236 46.7611766,67.6361874 C47.7232065,67.5511512 48.1308463,67.9933395 48.2449854,68.9117306 C48.3265134,69.5239914 48.4895693,70.1192449 48.8972091,70.5954477 C49.5168216,71.2927447 50.2831844,71.734933 51.2126031,71.5138388 C52.2235498,71.2757374 52.9083846,70.5614332 53.2181909,69.5069841 C53.7399698,67.7722454 53.7236642,67.7552381 55.4846681,67.6191802 C55.5498904,67.6191802 55.6314184,67.6191802 55.6966408,67.6021729 C59.0718982,66.9388904 59.6425939,66.7858253 59.7404275,62.6530652 L59.7404275,62.6530652 Z" id="Path" fill="#072E4F"></path>
                <path d="M56.6666667,11.5476465 C56.4602158,14.833754 54.2064604,17.185576 51.1785143,19.0541469 C50.9032464,19.231339 50.6279786,19.1830139 50.369915,19.0219302 C47.5140113,17.2500095 45.2258474,15.0270544 45.0193965,11.6604051 C44.8473541,8.64813986 45.8279958,5.84528347 47.6344409,3.33237774 C48.4086317,2.25311694 49.2688437,1.23828963 50.2666896,0.320112537 C50.5763659,0.0301618762 50.8172252,-0.179246935 51.2473312,0.223462317 C54.533341,3.25183589 56.4946243,6.86011078 56.6666667,11.5476465 Z M55.7892505,11.0805037 C55.7892505,10.0656764 55.5311869,9.13139096 54.9806512,8.24543061 C53.9656011,6.60237686 52.6924873,5.15262355 51.4193736,3.70287025 C51.0064719,3.23572752 50.7139998,3.1390773 50.2494853,3.68676188 C49.217231,4.89488963 48.1161596,6.03858391 47.2731519,7.35947025 C46.7914332,8.11656364 46.2064891,8.82533193 46.0172424,9.72740065 C45.3290728,12.8685328 46.8430459,15.2042465 49.2344352,17.1211425 C51.0924931,18.6192209 50.6107744,18.5547874 52.4172195,17.1533592 C54.3957071,15.574739 55.7720462,13.6417346 55.7892505,11.0805037 Z" id="Shape" fill="#0E2F4F"></path>
                <path d="M43.4574446,15.9276964 C44.842978,19.7179444 47.7642835,21.4164788 51.7873384,21.2277527 C55.4097571,21.070481 57.9638127,19.3090379 59.0989485,15.8333333 C59.4995847,18.3496806 58.0973581,20.8660278 55.5599957,22.2657459 C52.7388493,23.838463 48.8159534,23.6497369 46.2952842,21.8568395 C44.1585579,20.2998497 42.9232631,17.8306839 43.4574446,15.9276964 Z" id="Path" fill="#F8DB7F"></path>
                <polygon id="Path" fill="#072E4F" points="60 63.3333333 59.9834711 63.3168498 60.0165289 63.3498168"></polygon>
                <path d="M79.9997493,66.6441528 C79.9997493,67.6395627 79.2940966,68.3333333 78.3031802,68.3333333 C77.4023471,68.3182514 76.6666667,67.5641529 76.6666667,66.6743167 C76.6816806,65.7543166 77.4624026,64.9851361 78.3932635,65.0002181 C79.3541522,65.0002181 80.0147631,65.6789067 79.9997493,66.6441528 Z M77.9428469,67.0815299 C78.3031802,66.9759561 78.6334857,66.8100544 78.6184718,66.3274314 C78.6034579,65.9202182 78.3632357,65.6638247 77.9728747,65.6336608 C77.5224581,65.6034969 77.2371943,65.8900543 77.2071665,66.3123494 C77.1771388,66.7648085 77.4774165,67.00612 77.9428469,67.0815299 Z" id="Shape" fill="#D6483E"></path>
                <path d="M55.8333333,11.1630472 C55.8175203,13.7394769 54.5524799,15.6839521 52.7023583,17.2557362 C51.0419928,18.6654808 51.4847569,18.7302966 49.7769524,17.2233283 C47.5789447,15.2950571 46.1874002,12.9454829 46.8199204,9.78571064 C46.9938635,8.87828887 47.5315057,8.16531463 47.9742698,7.40372851 C48.7649201,6.07500378 49.7611394,4.90831866 50.7099197,3.70922561 C51.1368708,3.15829097 51.4056919,3.25551473 51.785204,3.72542957 C52.9553664,5.18378598 54.1255288,6.65834634 55.0584961,8.29494631 C55.5803253,9.20236808 55.8333333,10.1421978 55.8333333,11.1630472 Z M53.5404476,11.5195344 C53.5562606,10.1746057 52.6074803,9.16996016 51.2950009,9.12134828 C50.0773995,9.08894036 48.9388631,10.2232176 48.9546761,11.4709225 C48.9546761,12.8158512 49.9350824,13.8204967 51.2475619,13.8367007 C52.5758543,13.8367007 53.5246346,12.896871 53.5404476,11.5195344 Z" id="Shape" fill="#F9614A"></path>
                <path d="M59.3627451,89.8185781 C59.3235294,90.1308309 59.2058824,90.2349152 58.9705882,90.1828731 C59.0882353,90.0007256 59.127451,89.7405149 59.3627451,89.8185781 Z" id="Path" fill="#FE624A"></path>
                <path d="M78.3696557,67.5 C77.821004,67.4133246 77.4670351,67.1359634 77.502432,66.6159111 C77.5378289,66.130529 77.8740993,65.8011626 78.4050526,65.8358327 C78.8652121,65.8705029 79.1483872,66.1651991 79.1660857,66.6332462 C79.1837841,67.1879686 78.7944184,67.3786545 78.3696557,67.5 Z" id="Path" fill="#FBEBE7"></path>
                <path d="M53.3331217,11.7099752 C53.3159403,13.1702464 52.2850561,14.1666667 50.8246368,14.1666667 C49.4157618,14.1666667 48.3505147,13.0843481 48.3333333,11.6584363 C48.3333333,10.3356024 49.5703944,9.13302619 50.876181,9.16738551 C52.3194189,9.21892449 53.3503031,10.2840634 53.3331217,11.7099752 Z" id="Path" fill="#F8DB7F"></path>
            </g>
        </g>
    </g>
</svg>