<?xml version="1.0" encoding="UTF-8"?>
<svg width="420px" height="120px" viewBox="0 0 420 120" version="1.1" xmlns="http://www.w3.org/2000/svg" xmlns:xlink="http://www.w3.org/1999/xlink">
    <title>diwali copy</title>
    <defs>
        <path d="M20.8609333,0.229923077 C32.3830111,0.229923077 41.7235,6.44592308 41.7235,14.1152308 C41.7235,21.7834615 32.3830111,28 20.8609333,28 C9.3394,28 0,21.7834615 0,14.1152308" id="path-1"></path>
    </defs>
    <g id="Archive" stroke="none" stroke-width="1" fill="none" fill-rule="evenodd">
        <g id="diwali-copy">
            <polygon id="Mask" fill="#F1C533" fill-rule="nonzero" points="0 0 420 0 420 120 0 120"></polygon>
            <g id="Group-112" transform="translate(352.042553, 0.000000)" fill-rule="nonzero">
                <polygon id="Fill-1" fill="#003168" points="18.2484468 58 18.6664468 58 18.6664468 0 18.2484468 0"></polygon>
                <g id="Group-35" transform="translate(-0.042553, 56.000000)">
                    <path d="M38.40018,35.5703739 C38.40018,37.0413159 29.8038,38.2334319 19.1997,38.2334319 C8.5956,38.2334319 8.59046167e-14,37.0413159 8.59046167e-14,35.5703739 C8.59046167e-14,34.1002 8.5956,32.9080841 19.1997,32.9080841 C29.8038,32.9080841 38.40018,34.1002 38.40018,35.5703739" id="Fill-5" fill="#321048"></path>
                    <path d="M37.401546,37.3290522 C37.401546,38.7999942 29.252886,39.991342 19.199466,39.991342 C9.146046,39.991342 0.997386,38.7999942 0.997386,37.3290522 C0.997386,35.8581101 9.146046,34.6659942 19.199466,34.6659942 C29.252886,34.6659942 37.401546,35.8581101 37.401546,37.3290522" id="Fill-7" fill="#FFC001"></path>
                    <path d="M38.40018,35.5816652 C38.31282,36.3198246 38.18568,37.0449261 38.01798,37.7523609 L35.86518,43.0838536 C32.55018,48.6381 26.44122,52.3066217 19.20126,52.3066217 L19.19892,52.3066217 C11.95818,52.3066217 5.85078,48.6381 2.53578,43.0846217 L2.53578,43.0838536 C1.56156,41.4539116 0.8307,39.6618971 0.38142,37.7523609 C0.21528,37.0449261 0.08736,36.3198246 8.59046167e-14,35.5816652 C1.51164,36.8943754 10.93404,39.4068826 19.1997,28.001129 C27.46536,39.4068826 36.88932,36.8943754 38.40018,35.5816652" id="Fill-9" fill="#321048"></path>
                    <path d="M38.017746,37.7525145 L35.864946,43.0832391 C32.175546,43.791442 25.365366,43.0279348 19.199466,34.5202826 C13.034346,43.0263986 6.224946,43.791442 2.535546,43.0847754 L2.535546,43.0832391 C1.394406,41.0477319 0.884286,39.8341087 0.381186,37.7525145 C2.701686,39.0682971 11.457966,40.5937754 19.199466,29.9123551 C26.940966,40.5937754 35.696466,39.0682971 38.017746,37.7525145" id="Fill-11" fill="#00AE89"></path>
                    <path d="M18.581784,2.45600641e-14 C36.521784,18.709 19.256484,27.7312899 19.256484,27.7312899 C19.256484,27.7312899 1.738464,19.484029 18.581784,2.45600641e-14" id="Fill-13" fill="#FF8800"></path>
                    <path d="M18.831618,6.87632754 C32.117358,20.8445159 19.239558,27.5117623 19.239558,27.5117623 C19.239558,27.5117623 6.235398,21.3299652 18.831618,6.87632754" id="Fill-15" fill="#F27F2C"></path>
                    <path d="M18.944328,8.05208261 C31.404048,21.2721261 19.229028,27.5107638 19.229028,27.5107638 C19.229028,27.5107638 6.996288,21.6323725 18.944328,8.05208261" id="Fill-17" fill="#FFFFFF"></path>
                    <path d="M19.090578,12.458687 C28.420158,22.3597014 19.302738,27.0290783 19.302738,27.0290783 C19.302738,27.0290783 10.143198,22.6270058 19.090578,12.458687" id="Fill-19" fill="#FFC800"></path>
                    <path d="M19.1256,16.6971507 C25.73298,23.7223391 19.26522,27.0283101 19.26522,27.0283101 C19.26522,27.0283101 12.77328,23.9020783 19.1256,16.6971507" id="Fill-21" fill="#FF8800"></path>
                    <path d="M20.041944,37.9700449 C20.041944,39.3180884 19.010004,39.8726681 19.010004,39.8726681 C19.010004,39.8726681 17.900064,39.4102623 17.885244,37.9700449 C17.879004,37.2526246 18.368064,36.6711609 18.963984,36.6711609 C19.559904,36.6711609 20.041944,37.2526246 20.041944,37.9700449" id="Fill-23" fill="#FFC800"></path>
                    <path d="M20.041944,42.3371681 C20.041944,40.9891246 19.010004,40.4345449 19.010004,40.4345449 C19.010004,40.4345449 17.900064,40.8969507 17.885244,42.3371681 C17.879004,43.0545884 18.368064,43.6360522 18.963984,43.6360522 C19.559904,43.6360522 20.041944,43.0545884 20.041944,42.3371681" id="Fill-25" fill="#FFC800"></path>
                    <path d="M21.180744,41.2154116 C19.812624,41.2154116 19.249464,40.1991942 19.249464,40.1991942 C19.249464,40.1991942 19.717464,39.1061652 21.180744,39.0923391 C21.910824,39.0854261 22.499724,39.5670348 22.499724,40.1538754 C22.499724,40.7399478 21.910824,41.2154116 21.180744,41.2154116" id="Fill-27" fill="#FFC800"></path>
                    <path d="M16.746756,41.2154116 C18.115656,41.2154116 18.678816,40.1991942 18.678816,40.1991942 C18.678816,40.1991942 18.209256,39.1061652 16.746756,39.0923391 C16.017456,39.0854261 15.428556,39.5670348 15.428556,40.1538754 C15.428556,40.7399478 16.017456,41.2154116 16.746756,41.2154116" id="Fill-29" fill="#FFC800"></path>
                    <path d="M7.983222,44.4333565 C7.983222,45.1369507 7.444242,45.4257623 7.444242,45.4257623 C7.444242,45.4257623 6.865482,45.185342 6.858462,44.4333565 C6.855342,44.0600522 7.110402,43.7566464 7.420842,43.7566464 C7.731282,43.7566464 7.983222,44.0600522 7.983222,44.4333565" id="Fill-31" fill="#FFC800"></path>
                    <path d="M7.983222,46.7110507 C7.983222,46.0074565 7.444242,45.7186449 7.444242,45.7186449 C7.444242,45.7186449 6.865482,45.9590652 6.858462,46.7110507 C6.855342,47.0851232 7.110402,47.388529 7.420842,47.388529 C7.731282,47.388529 7.983222,47.0851232 7.983222,46.7110507" id="Fill-33" fill="#FFC800"></path>
                    <path d="M8.577348,46.1259768 C7.863648,46.1259768 7.570368,45.5959768 7.570368,45.5959768 C7.570368,45.5959768 7.814508,45.0260348 8.577348,45.0191217 C8.956428,45.0152812 9.264528,45.2664551 9.264528,45.5729333 C9.264528,45.8778754 8.956428,46.1259768 8.577348,46.1259768" id="Fill-35" fill="#FFC800"></path>
                    <path d="M6.264804,46.1259768 C6.977724,46.1259768 7.271784,45.5959768 7.271784,45.5959768 C7.271784,45.5959768 7.027644,45.0260348 6.264804,45.0191217 C5.884944,45.0152812 5.576064,45.2664551 5.576064,45.5729333 C5.576064,45.8778754 5.884944,46.1259768 6.264804,46.1259768" id="Fill-37" fill="#FFC800"></path>
                    <path d="M16.468764,48.1442014 C16.468764,48.8285928 15.944604,49.1097232 15.944604,49.1097232 C15.944604,49.1097232 15.381444,48.8762159 15.375204,48.1442014 C15.370524,47.7808826 15.618564,47.4859261 15.921984,47.4859261 C16.224624,47.4859261 16.468764,47.7808826 16.468764,48.1442014" id="Fill-39" fill="#FFC800"></path>
                    <path d="M16.468764,50.3603696 C16.468764,49.6759783 15.944604,49.3948478 15.944604,49.3948478 C15.944604,49.3948478 15.381444,49.6291232 15.375204,50.3603696 C15.370524,50.7252246 15.618564,51.019413 15.921984,51.019413 C16.224624,51.019413 16.468764,50.7252246 16.468764,50.3603696" id="Fill-41" fill="#FFC800"></path>
                    <path d="M17.04612,49.7914261 C16.3527,49.7914261 16.06644,49.2752522 16.06644,49.2752522 C16.06644,49.2752522 16.30434,48.7206725 17.04612,48.7137594 C17.41662,48.7099188 17.71614,48.9549478 17.71614,49.2522087 C17.71614,49.5502377 17.41662,49.7914261 17.04612,49.7914261" id="Fill-43" fill="#FFC800"></path>
                    <path d="M14.796054,49.7914261 C15.491814,49.7914261 15.776514,49.2752522 15.776514,49.2752522 C15.776514,49.2752522 15.539394,48.7206725 14.796054,48.7137594 C14.427114,48.7099188 14.127594,48.9549478 14.127594,49.2522087 C14.127594,49.5502377 14.427114,49.7914261 14.796054,49.7914261" id="Fill-45" fill="#FFC800"></path>
                    <path d="M11.50461,47.6209609 C11.50461,48.0203812 11.19963,48.184758 11.19963,48.184758 C11.19963,48.184758 10.87047,48.0480333 10.86735,47.6209609 C10.86423,47.4089609 11.01009,47.2361348 11.18559,47.2361348 C11.36187,47.2361348 11.50461,47.4089609 11.50461,47.6209609" id="Fill-47" fill="#FFC800"></path>
                    <path d="M11.50461,48.915313 C11.50461,48.5151246 11.19963,48.3515159 11.19963,48.3515159 C11.19963,48.3515159 10.87047,48.4882406 10.86735,48.915313 C10.86423,49.127313 11.01009,49.299371 11.18559,49.299371 C11.36187,49.299371 11.50461,49.127313 11.50461,48.915313" id="Fill-49" fill="#FFC800"></path>
                    <path d="M11.843598,48.582258 C11.437218,48.582258 11.271078,48.2811565 11.271078,48.2811565 C11.271078,48.2811565 11.409138,47.9577797 11.843598,47.953171 C12.058098,47.9516348 12.233598,48.0945043 12.233598,48.2673304 C12.233598,48.4416928 12.058098,48.582258 11.843598,48.582258" id="Fill-51" fill="#FFC800"></path>
                    <path d="M10.528908,48.582258 C10.935288,48.582258 11.101428,48.2811565 11.101428,48.2811565 C11.101428,48.2811565 10.961808,47.9577797 10.528908,47.953171 C10.312848,47.9516348 10.137348,48.0945043 10.137348,48.2673304 C10.137348,48.4416928 10.312848,48.582258 10.528908,48.582258" id="Fill-53" fill="#FFC800"></path>
                    <path d="M16.646994,45.0592942 C16.646994,45.4587145 16.341234,45.6223232 16.341234,45.6223232 C16.341234,45.6223232 16.012854,45.4863667 16.008954,45.0592942 C16.006614,44.8465261 16.151694,44.6737 16.328754,44.6737 C16.504254,44.6737 16.646994,44.8465261 16.646994,45.0592942" id="Fill-55" fill="#FFC800"></path>
                    <path d="M16.646994,46.3532623 C16.646994,45.9530739 16.341234,45.7894652 16.341234,45.7894652 C16.341234,45.7894652 16.012854,45.9261899 16.008954,46.3532623 C16.006614,46.5652623 16.151694,46.7373203 16.328754,46.7373203 C16.504254,46.7373203 16.646994,46.5652623 16.646994,46.3532623" id="Fill-57" fill="#FFC800"></path>
                    <path d="M16.985202,46.0205913 C16.578822,46.0205913 16.412682,45.7187217 16.412682,45.7187217 C16.412682,45.7187217 16.550742,45.3953449 16.985202,45.3915043 C17.201262,45.3892 17.375982,45.5320696 17.375982,45.7056638 C17.375982,45.879258 17.201262,46.0205913 16.985202,46.0205913" id="Fill-59" fill="#FFC800"></path>
                    <path d="M15.671214,46.0205913 C16.076814,46.0205913 16.242954,45.7187217 16.242954,45.7187217 C16.242954,45.7187217 16.104894,45.3953449 15.671214,45.3915043 C15.455934,45.3892 15.280434,45.5320696 15.280434,45.7056638 C15.280434,45.879258 15.455934,46.0205913 15.671214,46.0205913" id="Fill-61" fill="#FFC800"></path>
                    <path d="M21.127392,44.8628101 C21.127392,45.2629986 20.820852,45.4266072 20.820852,45.4266072 C20.820852,45.4266072 20.492472,45.2898826 20.487792,44.8628101 C20.486232,44.6508101 20.630532,44.4779841 20.8075858,44.4779841 C20.983872,44.4779841 21.127392,44.6508101 21.127392,44.8628101" id="Fill-63" fill="#FFC800"></path>
                    <path d="M21.127392,46.1567783 C21.127392,45.757358 20.820852,45.5937493 20.820852,45.5937493 C20.820852,45.5937493 20.492472,45.7297058 20.487792,46.1567783 C20.486232,46.3695464 20.630532,46.5416043 20.8075858,46.5416043 C20.983872,46.5416043 21.127392,46.3695464 21.127392,46.1567783" id="Fill-65" fill="#FFC800"></path>
                    <path d="M21.464118,45.8244145 C21.057738,45.8244145 20.893158,45.523313 20.893158,45.523313 C20.893158,45.523313 21.030438,45.1999362 21.464118,45.1953275 C21.680178,45.1930232 21.855678,45.3358928 21.855678,45.509487 C21.855678,45.6830812 21.680178,45.8244145 21.464118,45.8244145" id="Fill-67" fill="#FFC800"></path>
                    <path d="M20.15091,45.8244145 C20.55651,45.8244145 20.72187,45.523313 20.72187,45.523313 C20.72187,45.523313 20.58381,45.1999362 20.15091,45.1953275 C19.93485,45.1930232 19.75935,45.3358928 19.75935,45.509487 C19.75935,45.6830812 19.93485,45.8244145 20.15091,45.8244145" id="Fill-69" fill="#FFC800"></path>
                    <path d="M26.566878,46.3773043 C26.566878,46.7774928 26.259558,46.9411014 26.259558,46.9411014 C26.259558,46.9411014 25.932738,46.8043768 25.927278,46.3773043 C25.924938,46.1645362 26.070018,45.9924783 26.247858,45.9924783 C26.423358,45.9924783 26.566878,46.1645362 26.566878,46.3773043" id="Fill-71" fill="#FFC800"></path>
                    <path d="M26.566878,47.6711957 C26.566878,47.2717754 26.259558,47.1073986 26.259558,47.1073986 C26.259558,47.1073986 25.932738,47.2441232 25.927278,47.6711957 C25.924938,47.8839638 26.070018,48.0560217 26.247858,48.0560217 C26.423358,48.0560217 26.566878,47.8839638 26.566878,47.6711957" id="Fill-73" fill="#FFC800"></path>
                    <path d="M26.904306,47.3385246 C26.497926,47.3385246 26.331786,47.0374232 26.331786,47.0374232 C26.331786,47.0374232 26.469846,46.7140464 26.904306,46.7094377 C27.120366,46.7079014 27.295086,46.8500029 27.295086,47.0235971 C27.295086,47.1979594 27.120366,47.3385246 26.904306,47.3385246" id="Fill-75" fill="#FFC800"></path>
                    <path d="M25.589538,47.3385246 C25.995918,47.3385246 26.162058,47.0374232 26.162058,47.0374232 C26.162058,47.0374232 26.023998,46.7140464 25.589538,46.7094377 C25.375038,46.7079014 25.198758,46.8500029 25.198758,47.0235971 C25.198758,47.1979594 25.375038,47.3385246 25.589538,47.3385246" id="Fill-77" fill="#FFC800"></path>
                    <path d="M23.122398,47.7327217 C23.122398,48.5307942 22.510878,48.8587797 22.510878,48.8587797 C22.510878,48.8587797 21.854118,48.5853304 21.846318,47.7327217 C21.841638,47.3087217 22.131798,46.9646058 22.484358,46.9646058 C22.836918,46.9646058 23.122398,47.3087217 23.122398,47.7327217" id="Fill-79" fill="#FFC800"></path>
                    <path d="M23.122398,50.3176623 C23.122398,49.5195899 22.510878,49.1916043 22.510878,49.1916043 C22.510878,49.1916043 21.854118,49.4650536 21.846318,50.3176623 C21.841638,50.7424304 22.131798,51.0865464 22.484358,51.0865464 C22.836918,51.0865464 23.122398,50.7424304 23.122398,50.3176623" id="Fill-81" fill="#FFC800"></path>
                    <path d="M23.796474,49.6533957 C22.986054,49.6533957 22.652994,49.0519609 22.652994,49.0519609 C22.652994,49.0519609 22.931454,48.4052072 23.796474,48.3975261 C24.227814,48.3921493 24.576474,48.6778884 24.576474,49.0250768 C24.576474,49.3722652 24.227814,49.6533957 23.796474,49.6533957" id="Fill-83" fill="#FFC800"></path>
                    <path d="M21.171618,49.6533957 C21.982038,49.6533957 22.315878,49.0519609 22.315878,49.0519609 C22.315878,49.0519609 22.036638,48.4052072 21.171618,48.3975261 C20.740278,48.3921493 20.391618,48.6778884 20.391618,49.0250768 C20.391618,49.3722652 20.740278,49.6533957 21.171618,49.6533957" id="Fill-85" fill="#FFC800"></path>
                    <path d="M31.383222,44.2529261 C31.383222,45.0509986 30.772482,45.3789841 30.772482,45.3789841 C30.772482,45.3789841 30.116502,45.1055348 30.107922,44.2529261 C30.103242,43.828158 30.393402,43.4848101 30.746742,43.4848101 C31.098522,43.4848101 31.383222,43.828158 31.383222,44.2529261" id="Fill-87" fill="#FFC800"></path>
                    <path d="M31.383222,46.8374826 C31.383222,46.0401783 30.772482,45.7121928 30.772482,45.7121928 C30.772482,45.7121928 30.116502,45.985642 30.107922,46.8374826 C30.103242,47.2622507 30.393402,47.6063667 30.746742,47.6063667 C31.098522,47.6063667 31.383222,47.2622507 31.383222,46.8374826" id="Fill-89" fill="#FFC800"></path>
                    <path d="M32.058078,46.1743681 C31.247658,46.1743681 30.915378,45.5729333 30.915378,45.5729333 C30.915378,45.5729333 31.192278,44.9254116 32.058078,44.9169623 C32.489418,44.9131217 32.838858,45.1980928 32.838858,45.5460493 C32.838858,45.8924696 32.489418,46.1743681 32.058078,46.1743681" id="Fill-91" fill="#FFC800"></path>
                    <path d="M29.433222,46.1743681 C30.243642,46.1743681 30.577482,45.5729333 30.577482,45.5729333 C30.577482,45.5729333 30.299022,44.9254116 29.433222,44.9169623 C29.001882,44.9131217 28.653222,45.1980928 28.653222,45.5460493 C28.653222,45.8924696 29.001882,46.1743681 29.433222,46.1743681" id="Fill-93" fill="#FFC800"></path>
                    <path d="M13.8606,42.7156188 C13.8606,43.3808072 13.35204,43.6534884 13.35204,43.6534884 C13.35204,43.6534884 12.8037,43.4261261 12.79746,42.7156188 C12.79278,42.3615174 13.03458,42.074242 13.32864,42.074242 C13.62192,42.074242 13.8606,42.3615174 13.8606,42.7156188" id="Fill-95" fill="#FFC800"></path>
                    <path d="M13.8606,44.8703377 C13.8606,44.2051493 13.35204,43.9309319 13.35204,43.9309319 C13.35204,43.9309319 12.8037,44.1598304 12.79746,44.8703377 C12.79278,45.223671 13.03458,45.5109464 13.32864,45.5109464 C13.62192,45.5109464 13.8606,45.223671 13.8606,44.8703377" id="Fill-97" fill="#FFC800"></path>
                    <path d="M14.422746,44.3163725 C13.746486,44.3163725 13.468806,43.8147928 13.468806,43.8147928 C13.468806,43.8147928 13.700466,43.2763435 14.422746,43.2686623 C14.782326,43.2655899 15.071706,43.5029377 15.071706,43.7925174 C15.071706,44.0820971 14.782326,44.3163725 14.422746,44.3163725" id="Fill-99" fill="#FFC800"></path>
                    <path d="M12.234378,44.3163725 C12.909858,44.3163725 13.187538,43.8147928 13.187538,43.8147928 C13.187538,43.8147928 12.955878,43.2763435 12.234378,43.2686623 C11.875578,43.2655899 11.583078,43.5029377 11.583078,43.7925174 C11.583078,44.0820971 11.875578,44.3163725 12.234378,44.3163725" id="Fill-101" fill="#FFC800"></path>
                    <path d="M24.824826,42.4732783 C24.824826,43.1761043 24.287406,43.4656841 24.287406,43.4656841 C24.287406,43.4656841 23.707866,43.2244957 23.700846,42.4732783 C23.696166,42.0992058 23.952006,41.7958 24.262446,41.7958 C24.573666,41.7958 24.824826,42.0992058 24.824826,42.4732783" id="Fill-103" fill="#FFC800"></path>
                    <path d="M24.824826,44.7506652 C24.824826,44.0478391 24.287406,43.7582594 24.287406,43.7582594 C24.287406,43.7582594 23.707866,43.9994478 23.700846,44.7506652 C23.696166,45.1247377 23.952006,45.4281435 24.262446,45.4281435 C24.573666,45.4281435 24.824826,45.1247377 24.824826,44.7506652" id="Fill-105" fill="#FFC800"></path>
                    <path d="M25.418952,44.1659754 C24.704472,44.1659754 24.411972,43.6359754 24.411972,43.6359754 C24.411972,43.6359754 24.655332,43.0652652 25.418952,43.0583522 C25.798812,43.0545116 26.106132,43.3064536 26.106132,43.6121638 C26.106132,43.9178739 25.798812,44.1659754 25.418952,44.1659754" id="Fill-107" fill="#FFC800"></path>
                    <path d="M23.106408,44.1659754 C23.820888,44.1659754 24.114168,43.6359754 24.114168,43.6359754 C24.114168,43.6359754 23.870028,43.0652652 23.106408,43.0583522 C22.726548,43.0545116 22.418448,43.3064536 22.418448,43.6121638 C22.418448,43.9178739 22.726548,44.1659754 23.106408,44.1659754" id="Fill-109" fill="#FFC800"></path>
                </g>
            </g>
            <g id="Group-112" transform="translate(326.531915, 0.000000)">
                <polygon id="Fill-1" fill="#003168" fill-rule="nonzero" points="19.8217851 33 20.1143851 33 20.1143851 0 19.8217851 0"></polygon>
                <g id="Group-111" transform="translate(-0.531915, 33.000000)">
                    <g id="Fill-2-Clipped" transform="translate(0.000000, 21.000000)">
                        <mask id="mask-2" fill="white">
                            <use xlink:href="#path-1"></use>
                        </mask>
                        <g id="path-1"></g>
                        <path d="M41.7235,14.1152308 C41.7235,21.7834615 32.3830111,28 20.8609333,28 C9.3394,28 0,21.7834615 0,14.1152308 C0,6.44592308 9.3394,0.229923077 20.8609333,0.229923077 C32.3830111,0.229923077 41.7235,6.44592308 41.7235,14.1152308" id="Fill-2" mask="url(#mask-2)"></path>
                    </g>
                    <path d="M34.2394033,25.2934769 C34.2394033,26.3246308 28.2390811,27.1603231 20.8373589,27.1603231 C13.4356367,27.1603231 7.43585889,26.3246308 7.43585889,25.2934769 C7.43585889,24.2628615 13.4356367,23.4271692 20.8373589,23.4271692 C28.2390811,23.4271692 34.2394033,24.2628615 34.2394033,25.2934769" id="Fill-5" fill="#321048" fill-rule="nonzero"></path>
                    <path d="M33.5423511,26.5263385 C33.5423511,27.5574923 27.85454,28.3926462 20.8371956,28.3926462 C13.8198511,28.3926462 8.13204,27.5574923 8.13204,26.5263385 C8.13204,25.4951846 13.8198511,24.6594923 20.8371956,24.6594923 C27.85454,24.6594923 33.5423511,25.4951846 33.5423511,26.5263385" id="Fill-7" fill="#FFC001" fill-rule="nonzero"></path>
                    <path d="M34.2394033,25.3013923 C34.1784256,25.8188538 34.0896811,26.3271615 33.9726256,26.8230846 L32.4699589,30.5605462 C30.15607,34.4541615 25.8919811,37.0258538 20.8384478,37.0258538 L20.8368144,37.0258538 C15.7827367,37.0258538 11.5197367,34.4541615 9.20584778,30.5610846 L9.20584778,30.5605462 C8.52583667,29.4179308 8.01569222,28.1617 7.70209222,26.8230846 C7.58612556,26.3271615 7.49683667,25.8188538 7.43585889,25.3013923 C8.49099222,26.2216231 15.0678811,27.9829308 20.8373589,19.9873154 C26.6068367,27.9829308 33.1848144,26.2216231 34.2394033,25.3013923" id="Fill-9" fill="#321048" fill-rule="nonzero"></path>
                    <path d="M33.9724622,26.8231923 L32.4697956,30.5601154 C29.8945733,31.0565769 25.1410289,30.5213462 20.8371956,24.5573462 C16.5339067,30.5202692 11.7809067,31.0565769 9.20568444,30.5611923 L9.20568444,30.5601154 C8.40916222,29.1331923 8.05309556,28.2824231 7.70192889,26.8231923 C9.32165111,27.7455769 15.4335844,28.8149615 20.8371956,21.3271154 C26.2408067,28.8149615 32.3521956,27.7455769 33.9724622,26.8231923" id="Fill-11" fill="#00AE89" fill-rule="nonzero"></path>
                    <path d="M20.40605,0.358076923 C32.9282722,13.4733846 20.8769944,19.7981538 20.8769944,19.7981538 C20.8769944,19.7981538 8.64931667,14.0166923 20.40605,0.358076923" id="Fill-13" fill="#FF8800" fill-rule="nonzero"></path>
                    <path d="M20.5804356,5.17849231 C29.8539578,14.9704154 20.86518,19.6442615 20.86518,19.6442615 C20.86518,19.6442615 11.7882022,15.3107231 20.5804356,5.17849231" id="Fill-15" fill="#F27F2C" fill-rule="nonzero"></path>
                    <path d="M20.6591078,6.00271538 C29.3560633,15.2701769 20.85783,19.6435615 20.85783,19.6435615 C20.85783,19.6435615 12.3193078,15.5227154 20.6591078,6.00271538" id="Fill-17" fill="#FFFFFF" fill-rule="nonzero"></path>
                    <path d="M20.7611911,9.09181538 C27.2732911,16.0325846 20.90928,19.3058923 20.90928,19.3058923 C20.90928,19.3058923 14.5158689,16.2199692 20.7611911,9.09181538" id="Fill-19" fill="#FFC800" fill-rule="nonzero"></path>
                    <path d="M20.7856367,12.0630462 C25.3976256,16.9878154 20.8830922,19.3053538 20.8830922,19.3053538 C20.8830922,19.3053538 16.3516811,17.1138154 20.7856367,12.0630462" id="Fill-21" fill="#FF8800" fill-rule="nonzero"></path>
                    <path d="M21.42525,26.9756846 C21.42525,27.9206846 20.70495,28.3094538 20.70495,28.3094538 C20.70495,28.3094538 19.9302056,27.9853 19.9198611,26.9756846 C19.9155056,26.4727615 20.2568722,26.0651462 20.6728278,26.0651462 C21.0887833,26.0651462 21.42525,26.4727615 21.42525,26.9756846" id="Fill-23" fill="#FFC800" fill-rule="nonzero"></path>
                    <path d="M21.42525,30.0371077 C21.42525,29.0921077 20.70495,28.7033385 20.70495,28.7033385 C20.70495,28.7033385 19.9302056,29.0274923 19.9198611,30.0371077 C19.9155056,30.5400308 20.2568722,30.9476462 20.6728278,30.9476462 C21.0887833,30.9476462 21.42525,30.5400308 21.42525,30.0371077" id="Fill-25" fill="#FFC800" fill-rule="nonzero"></path>
                    <path d="M22.2201389,29.2507385 C21.2651833,29.2507385 20.8720944,28.5383538 20.8720944,28.5383538 C20.8720944,28.5383538 21.1987611,27.7721231 22.2201389,27.7624308 C22.7297389,27.7575846 23.1407944,28.0952 23.1407944,28.5065846 C23.1407944,28.9174308 22.7297389,29.2507385 22.2201389,29.2507385" id="Fill-27" fill="#FFC800" fill-rule="nonzero"></path>
                    <path d="M19.12519,29.2507385 C20.08069,29.2507385 20.4737789,28.5383538 20.4737789,28.5383538 C20.4737789,28.5383538 20.1460233,27.7721231 19.12519,27.7624308 C18.6161344,27.7575846 18.2050789,28.0952 18.2050789,28.5065846 C18.2050789,28.9174308 18.6161344,29.2507385 19.12519,29.2507385" id="Fill-29" fill="#FFC800" fill-rule="nonzero"></path>
                    <path d="M13.0081933,31.5065692 C13.0081933,31.9998 12.6319822,32.2022615 12.6319822,32.2022615 C12.6319822,32.2022615 12.2280044,32.0337231 12.2231044,31.5065692 C12.2209267,31.2448769 12.39896,31.0321846 12.6156489,31.0321846 C12.8323378,31.0321846 13.0081933,31.2448769 13.0081933,31.5065692" id="Fill-31" fill="#FFC800" fill-rule="nonzero"></path>
                    <path d="M13.0081933,33.1032692 C13.0081933,32.6100385 12.6319822,32.4075769 12.6319822,32.4075769 C12.6319822,32.4075769 12.2280044,32.5761154 12.2231044,33.1032692 C12.2209267,33.3655 12.39896,33.5781923 12.6156489,33.5781923 C12.8323378,33.5781923 13.0081933,33.3655 13.0081933,33.1032692" id="Fill-33" fill="#FFC800" fill-rule="nonzero"></path>
                    <path d="M13.4228967,32.6931231 C12.92473,32.6931231 12.7200189,32.3215846 12.7200189,32.3215846 C12.7200189,32.3215846 12.89043,31.9220462 13.4228967,31.9172 C13.6874967,31.9145077 13.9025522,32.0905846 13.9025522,32.3054308 C13.9025522,32.5192 13.6874967,32.6931231 13.4228967,32.6931231" id="Fill-35" fill="#FFC800" fill-rule="nonzero"></path>
                    <path d="M11.8087278,32.6931231 C12.30635,32.6931231 12.5116056,32.3215846 12.5116056,32.3215846 C12.5116056,32.3215846 12.3411944,31.9220462 11.8087278,31.9172 C11.5435833,31.9145077 11.3279833,32.0905846 11.3279833,32.3054308 C11.3279833,32.5192 11.5435833,32.6931231 11.8087278,32.6931231" id="Fill-37" fill="#FFC800" fill-rule="nonzero"></path>
                    <path d="M18.93115,34.1079308 C18.93115,34.5877 18.5652833,34.7847769 18.5652833,34.7847769 C18.5652833,34.7847769 18.1721944,34.6210846 18.1678389,34.1079308 C18.1645722,33.8532385 18.3377056,33.6464692 18.5494944,33.6464692 C18.7607389,33.6464692 18.93115,33.8532385 18.93115,34.1079308" id="Fill-39" fill="#FFC800" fill-rule="nonzero"></path>
                    <path d="M18.93115,35.6615 C18.93115,35.1817308 18.5652833,34.9846538 18.5652833,34.9846538 C18.5652833,34.9846538 18.1721944,35.1488846 18.1678389,35.6615 C18.1645722,35.9172692 18.3377056,36.1235 18.5494944,36.1235 C18.7607389,36.1235 18.93115,35.9172692 18.93115,35.6615" id="Fill-41" fill="#FFC800" fill-rule="nonzero"></path>
                    <path d="M19.3341478,35.2626615 C18.8501367,35.2626615 18.6503256,34.9008154 18.6503256,34.9008154 C18.6503256,34.9008154 18.8163811,34.5120462 19.3341478,34.5072 C19.5927589,34.5045077 19.8018256,34.6762769 19.8018256,34.8846615 C19.8018256,35.0935846 19.5927589,35.2626615 19.3341478,35.2626615" id="Fill-43" fill="#FFC800" fill-rule="nonzero"></path>
                    <path d="M17.7635889,35.2626615 C18.2492333,35.2626615 18.4479556,34.9008154 18.4479556,34.9008154 C18.4479556,34.9008154 18.2824444,34.5120462 17.7635889,34.5072 C17.5060667,34.5045077 17.297,34.6762769 17.297,34.8846615 C17.297,35.0935846 17.5060667,35.2626615 17.7635889,35.2626615" id="Fill-45" fill="#FFC800" fill-rule="nonzero"></path>
                    <path d="M15.4661422,33.7411308 C15.4661422,34.0211308 15.2532644,34.1363615 15.2532644,34.1363615 C15.2532644,34.1363615 15.0235089,34.0405154 15.0213311,33.7411308 C15.0191533,33.5925154 15.1209644,33.4713615 15.2434644,33.4713615 C15.3665089,33.4713615 15.4661422,33.5925154 15.4661422,33.7411308" id="Fill-47" fill="#FFC800" fill-rule="nonzero"></path>
                    <path d="M15.4661422,34.6484923 C15.4661422,34.3679538 15.2532644,34.2532615 15.2532644,34.2532615 C15.2532644,34.2532615 15.0235089,34.3491077 15.0213311,34.6484923 C15.0191533,34.7971077 15.1209644,34.9177231 15.2434644,34.9177231 C15.3665089,34.9177231 15.4661422,34.7971077 15.4661422,34.6484923" id="Fill-49" fill="#FFC800" fill-rule="nonzero"></path>
                    <path d="M15.7027578,34.4150154 C15.4191022,34.4150154 15.3031356,34.2039385 15.3031356,34.2039385 C15.3031356,34.2039385 15.3995022,33.9772462 15.7027578,33.9740154 C15.85248,33.9729385 15.97498,34.0730923 15.97498,34.1942462 C15.97498,34.3164769 15.85248,34.4150154 15.7027578,34.4150154" id="Fill-51" fill="#FFC800" fill-rule="nonzero"></path>
                    <path d="M14.7850967,34.4150154 C15.0687522,34.4150154 15.1847189,34.2039385 15.1847189,34.2039385 C15.1847189,34.2039385 15.0872633,33.9772462 14.7850967,33.9740154 C14.6342856,33.9729385 14.5117856,34.0730923 14.5117856,34.1942462 C14.5117856,34.3164769 14.6342856,34.4150154 14.7850967,34.4150154" id="Fill-53" fill="#FFC800" fill-rule="nonzero"></path>
                    <path d="M19.0555556,31.9453615 C19.0555556,32.2253615 18.8421333,32.3400538 18.8421333,32.3400538 C18.8421333,32.3400538 18.6129222,32.2447462 18.6102,31.9453615 C18.6085667,31.7962077 18.7098333,31.6750538 18.8334222,31.6750538 C18.9559222,31.6750538 19.0555556,31.7962077 19.0555556,31.9453615" id="Fill-55" fill="#FFC800" fill-rule="nonzero"></path>
                    <path d="M19.0555556,32.8524538 C19.0555556,32.5719154 18.8421333,32.4572231 18.8421333,32.4572231 C18.8421333,32.4572231 18.6129222,32.5530692 18.6102,32.8524538 C18.6085667,33.0010692 18.7098333,33.1216846 18.8334222,33.1216846 C18.9559222,33.1216846 19.0555556,33.0010692 19.0555556,32.8524538" id="Fill-57" fill="#FFC800" fill-rule="nonzero"></path>
                    <path d="M19.2916267,32.6192462 C19.0079711,32.6192462 18.8920044,32.4076308 18.8920044,32.4076308 C18.8920044,32.4076308 18.9883711,32.1809385 19.2916267,32.1782462 C19.4424378,32.1766308 19.5643933,32.2767846 19.5643933,32.3984769 C19.5643933,32.5201692 19.4424378,32.6192462 19.2916267,32.6192462" id="Fill-59" fill="#FFC800" fill-rule="nonzero"></path>
                    <path d="M18.3744556,32.6192462 C18.6575667,32.6192462 18.7735333,32.4076308 18.7735333,32.4076308 C18.7735333,32.4076308 18.6771667,32.1809385 18.3744556,32.1782462 C18.2241889,32.1766308 18.1016889,32.2767846 18.1016889,32.3984769 C18.1016889,32.5201692 18.2241889,32.6192462 18.3744556,32.6192462" id="Fill-61" fill="#FFC800" fill-rule="nonzero"></path>
                    <path d="M22.1828989,31.8076231 C22.1828989,32.0881615 21.9689322,32.2028538 21.9689322,32.2028538 C21.9689322,32.2028538 21.7397211,32.1070077 21.7364544,31.8076231 C21.7353656,31.6590077 21.8360878,31.5378538 21.9596767,31.5378538 C22.0827211,31.5378538 22.1828989,31.6590077 22.1828989,31.8076231" id="Fill-63" fill="#FFC800" fill-rule="nonzero"></path>
                    <path d="M22.1828989,32.7147154 C22.1828989,32.4347154 21.9689322,32.3200231 21.9689322,32.3200231 C21.9689322,32.3200231 21.7397211,32.4153308 21.7364544,32.7147154 C21.7353656,32.8638692 21.8360878,32.9844846 21.9596767,32.9844846 C22.0827211,32.9844846 22.1828989,32.8638692 22.1828989,32.7147154" id="Fill-65" fill="#FFC800" fill-rule="nonzero"></path>
                    <path d="M22.4179356,32.4817231 C22.13428,32.4817231 22.0194022,32.2706462 22.0194022,32.2706462 C22.0194022,32.2706462 22.1152244,32.0439538 22.4179356,32.0407231 C22.5687467,32.0391077 22.6912467,32.1392615 22.6912467,32.2609538 C22.6912467,32.3826462 22.5687467,32.4817231 22.4179356,32.4817231" id="Fill-67" fill="#FFC800" fill-rule="nonzero"></path>
                    <path d="M21.5013089,32.4817231 C21.78442,32.4817231 21.8998422,32.2706462 21.8998422,32.2706462 C21.8998422,32.2706462 21.8034756,32.0439538 21.5013089,32.0407231 C21.3504978,32.0391077 21.2279978,32.1392615 21.2279978,32.2609538 C21.2279978,32.3826462 21.3504978,32.4817231 21.5013089,32.4817231" id="Fill-69" fill="#FFC800" fill-rule="nonzero"></path>
                    <path d="M25.9796911,32.8693077 C25.9796911,33.1498462 25.76518,33.2645385 25.76518,33.2645385 C25.76518,33.2645385 25.5370578,33.1686923 25.5332467,32.8693077 C25.5316133,32.7201538 25.63288,32.5995385 25.7570133,32.5995385 C25.8795133,32.5995385 25.9796911,32.7201538 25.9796911,32.8693077" id="Fill-71" fill="#FFC800" fill-rule="nonzero"></path>
                    <path d="M25.9796911,33.7763462 C25.9796911,33.4963462 25.76518,33.3811154 25.76518,33.3811154 C25.76518,33.3811154 25.5370578,33.4769615 25.5332467,33.7763462 C25.5316133,33.9255 25.63288,34.0461154 25.7570133,34.0461154 C25.8795133,34.0461154 25.9796911,33.9255 25.9796911,33.7763462" id="Fill-73" fill="#FFC800" fill-rule="nonzero"></path>
                    <path d="M26.2152178,33.5431385 C25.9315622,33.5431385 25.8155956,33.3320615 25.8155956,33.3320615 C25.8155956,33.3320615 25.9119622,33.1053692 26.2152178,33.1021385 C26.3660289,33.1010615 26.4879844,33.2006769 26.4879844,33.3223692 C26.4879844,33.4446 26.3660289,33.5431385 26.2152178,33.5431385" id="Fill-75" fill="#FFC800" fill-rule="nonzero"></path>
                    <path d="M25.2975022,33.5431385 C25.5811578,33.5431385 25.6971244,33.3320615 25.6971244,33.3320615 C25.6971244,33.3320615 25.6007578,33.1053692 25.2975022,33.1021385 C25.14778,33.1010615 25.0247356,33.2006769 25.0247356,33.3223692 C25.0247356,33.4446 25.14778,33.5431385 25.2975022,33.5431385" id="Fill-77" fill="#FFC800" fill-rule="nonzero"></path>
                    <path d="M23.5754244,33.8194769 C23.5754244,34.3789385 23.14858,34.6088615 23.14858,34.6088615 C23.14858,34.6088615 22.6901578,34.4171692 22.6847133,33.8194769 C22.6814467,33.5222462 22.88398,33.2810154 23.1300689,33.2810154 C23.3761578,33.2810154 23.5754244,33.5222462 23.5754244,33.8194769" id="Fill-79" fill="#FFC800" fill-rule="nonzero"></path>
                    <path d="M23.5754244,35.6315615 C23.5754244,35.0721 23.14858,34.8421769 23.14858,34.8421769 C23.14858,34.8421769 22.6901578,35.0338692 22.6847133,35.6315615 C22.6814467,35.9293308 22.88398,36.1705615 23.1300689,36.1705615 C23.3761578,36.1705615 23.5754244,35.9293308 23.5754244,35.6315615" id="Fill-81" fill="#FFC800" fill-rule="nonzero"></path>
                    <path d="M24.0459333,35.1659 C23.4802556,35.1659 23.2477778,34.7442846 23.2477778,34.7442846 C23.2477778,34.7442846 23.4421444,34.2909 24.0459333,34.2855154 C24.3470111,34.2817462 24.5903778,34.4820538 24.5903778,34.7254385 C24.5903778,34.9688231 24.3470111,35.1659 24.0459333,35.1659" id="Fill-83" fill="#FFC800" fill-rule="nonzero"></path>
                    <path d="M22.2137689,35.1659 C22.7794467,35.1659 23.0124689,34.7442846 23.0124689,34.7442846 C23.0124689,34.7442846 22.8175578,34.2909 22.2137689,34.2855154 C21.9126911,34.2817462 21.6693244,34.4820538 21.6693244,34.7254385 C21.6693244,34.9688231 21.9126911,35.1659 22.2137689,35.1659" id="Fill-85" fill="#FFC800" fill-rule="nonzero"></path>
                    <path d="M29.3415267,31.3800846 C29.3415267,31.9395462 28.9152267,32.1694692 28.9152267,32.1694692 C28.9152267,32.1694692 28.4573489,31.9777769 28.45136,31.3800846 C28.4480933,31.0823154 28.6506267,30.8416231 28.89726,30.8416231 C29.1428044,30.8416231 29.3415267,31.0823154 29.3415267,31.3800846" id="Fill-87" fill="#FFC800" fill-rule="nonzero"></path>
                    <path d="M29.3415267,33.1919 C29.3415267,32.6329769 28.9152267,32.4030538 28.9152267,32.4030538 C28.9152267,32.4030538 28.4573489,32.5947462 28.45136,33.1919 C28.4480933,33.4896692 28.6506267,33.7309 28.89726,33.7309 C29.1428044,33.7309 29.3415267,33.4896692 29.3415267,33.1919" id="Fill-89" fill="#FFC800" fill-rule="nonzero"></path>
                    <path d="M29.81258,32.7270462 C29.2469022,32.7270462 29.0149689,32.3054308 29.0149689,32.3054308 C29.0149689,32.3054308 29.2082467,31.8515077 29.81258,31.8455846 C30.1136578,31.8428923 30.3575689,32.0426615 30.3575689,32.2865846 C30.3575689,32.5294308 30.1136578,32.7270462 29.81258,32.7270462" id="Fill-91" fill="#FFC800" fill-rule="nonzero"></path>
                    <path d="M27.9804156,32.7270462 C28.5460933,32.7270462 28.7791156,32.3054308 28.7791156,32.3054308 C28.7791156,32.3054308 28.5847489,31.8515077 27.9804156,31.8455846 C27.6793378,31.8428923 27.4359711,32.0426615 27.4359711,32.2865846 C27.4359711,32.5294308 27.6793378,32.7270462 27.9804156,32.7270462" id="Fill-93" fill="#FFC800" fill-rule="nonzero"></path>
                    <path d="M17.1106367,30.3024077 C17.1106367,30.7687154 16.7556589,30.9598692 16.7556589,30.9598692 C16.7556589,30.9598692 16.3729144,30.8004846 16.3685589,30.3024077 C16.3652922,30.0541769 16.53407,29.8527923 16.7393256,29.8527923 C16.9440367,29.8527923 17.1106367,30.0541769 17.1106367,30.3024077" id="Fill-95" fill="#FFC800" fill-rule="nonzero"></path>
                    <path d="M17.1106367,31.8129 C17.1106367,31.3465923 16.7556589,31.1543615 16.7556589,31.1543615 C16.7556589,31.1543615 16.3729144,31.3148231 16.3685589,31.8129 C16.3652922,32.0605923 16.53407,32.2619769 16.7393256,32.2619769 C16.9440367,32.2619769 17.1106367,32.0605923 17.1106367,31.8129" id="Fill-97" fill="#FFC800" fill-rule="nonzero"></path>
                    <path d="M17.5030178,31.4245615 C17.0309844,31.4245615 16.8371622,31.0729462 16.8371622,31.0729462 C16.8371622,31.0729462 16.9988622,30.6954846 17.5030178,30.6901 C17.7540067,30.6879462 17.9559956,30.8543308 17.9559956,31.0573308 C17.9559956,31.2603308 17.7540067,31.4245615 17.5030178,31.4245615" id="Fill-99" fill="#FFC800" fill-rule="nonzero"></path>
                    <path d="M15.9755244,31.4245615 C16.4470133,31.4245615 16.6408356,31.0729462 16.6408356,31.0729462 C16.6408356,31.0729462 16.4791356,30.6954846 15.9755244,30.6901 C15.72508,30.6879462 15.5209133,30.8543308 15.5209133,31.0573308 C15.5209133,31.2603308 15.72508,31.4245615 15.9755244,31.4245615" id="Fill-101" fill="#FFC800" fill-rule="nonzero"></path>
                    <path d="M24.7637289,30.1325231 C24.7637289,30.6252154 24.3886067,30.8282154 24.3886067,30.8282154 C24.3886067,30.8282154 23.9840844,30.6591385 23.9791844,30.1325231 C23.9759178,29.8702923 24.1544956,29.6576 24.3711844,29.6576 C24.5884178,29.6576 24.7637289,29.8702923 24.7637289,30.1325231" id="Fill-103" fill="#FFC800" fill-rule="nonzero"></path>
                    <path d="M24.7637289,31.7290077 C24.7637289,31.2363154 24.3886067,31.0333154 24.3886067,31.0333154 C24.3886067,31.0333154 23.9840844,31.2023923 23.9791844,31.7290077 C23.9759178,31.9912385 24.1544956,32.2039308 24.3711844,32.2039308 C24.5884178,32.2039308 24.7637289,31.9912385 24.7637289,31.7290077" id="Fill-105" fill="#FFC800" fill-rule="nonzero"></path>
                    <path d="M25.1784322,31.3191308 C24.6797211,31.3191308 24.4755544,30.9475923 24.4755544,30.9475923 C24.4755544,30.9475923 24.6454211,30.5475154 25.1784322,30.5426692 C25.4435767,30.5399769 25.6580878,30.7165923 25.6580878,30.9309 C25.6580878,31.1452077 25.4435767,31.3191308 25.1784322,31.3191308" id="Fill-107" fill="#FFC800" fill-rule="nonzero"></path>
                    <path d="M23.5642633,31.3191308 C24.0629744,31.3191308 24.2676856,30.9475923 24.2676856,30.9475923 C24.2676856,30.9475923 24.0972744,30.5475154 23.5642633,30.5426692 C23.2991189,30.5399769 23.0840633,30.7165923 23.0840633,30.9309 C23.0840633,31.1452077 23.2991189,31.3191308 23.5642633,31.3191308" id="Fill-109" fill="#FFC800" fill-rule="nonzero"></path>
                </g>
            </g>
        </g>
    </g>
</svg>