<?xml version="1.0" encoding="UTF-8"?>
<svg width="420px" height="120px" viewBox="0 0 420 120" version="1.1" xmlns="http://www.w3.org/2000/svg" xmlns:xlink="http://www.w3.org/1999/xlink">
    <title>new-year copy</title>
    <defs>
        <polygon id="path-1" points="0.366247619 0.0202181818 15.3782857 0.0202181818 15.3782857 15.8056728 0.366247619 15.8056728"></polygon>
        <polygon id="path-3" points="0.413763158 0.0831859092 14.9994098 0.0831859092 14.9994098 7 0.413763158 7"></polygon>
        <polygon id="path-5" points="0 0.563827586 50.61 0.563827586 50.61 82.2385554 0 82.2385554"></polygon>
        <polygon id="path-7" points="0 0.451062069 40.9643295 0.451062069 40.9643295 65.7908443 0 65.7908443"></polygon>
        <polygon id="path-9" points="0.902676923 0.106 21.8906769 0.106 21.8906769 18.727575 0.902676923 18.727575"></polygon>
        <polygon id="path-11" points="0.137459069 0.94465 18.4971909 0.94465 18.4971909 21 0.137459069 21"></polygon>
        <polygon id="path-13" points="0.634448109 0.36288 28.0794937 0.36288 28.0794937 7.90488 0.634448109 7.90488"></polygon>
    </defs>
    <g id="Archive" stroke="none" stroke-width="1" fill="none" fill-rule="evenodd">
        <g id="new-year-copy">
            <g id="Group-1164" fill="#4AA6F0" fill-rule="nonzero">
                <g id="Mask">
                    <polygon id="path-1" points="0 0 420 0 420 120 0 120"></polygon>
                </g>
            </g>
            <g id="Group-39" transform="translate(0.000000, 1.000000)">
                <path d="M15.8465313,66.3044577 C16.44161,66.5441177 17.0994722,66.485409 17.5737609,66.1283318 C17.8822191,65.8975184 18.1149276,65.4278493 18.1388127,64.9879366 C18.1497315,64.7852711 18.1217519,64.5029871 17.9252122,64.3091682 C17.708882,64.0960478 17.3383226,64.061466 17.0237225,64.2247243 C16.722771,64.3807445 16.4525288,64.692785 16.2198203,65.1495864 C16.0389765,65.5058594 15.9154566,65.8983226 15.8465313,66.3044577 M19.0832954,72 C18.1797584,72 17.2782688,71.6726792 16.5569406,71.0051701 C15.4909854,70.0199908 14.9429943,68.4051011 15.0166967,66.8376608 C14.2933212,66.3277803 13.7043844,65.4672565 13.3495209,64.3968291 C12.6479832,62.2849265 13.024002,59.7138097 14.2844496,58 L14.8617851,58.589499 C13.7814989,60.057215 13.4593921,62.2599954 14.0606127,64.0695083 C14.3090171,64.8174403 14.6877656,65.4358916 15.1484057,65.8548943 C15.2398512,65.4487592 15.3783845,65.0546875 15.5646878,64.6879596 C15.8799703,64.0670956 16.2669079,63.6344209 16.7152643,63.401999 C17.3035187,63.0955882 17.9702525,63.1816406 18.4145143,63.6191406 C18.7605061,63.9593291 18.9324784,64.4659927 18.9010867,65.045841 C18.8608233,65.7768842 18.5011828,66.4998851 17.9839011,66.8883272 C17.3574306,67.3588006 16.5446568,67.4705882 15.781018,67.222886 C15.8083152,68.3994715 16.2477999,69.5752528 17.0278171,70.2974494 C18.2909945,71.4651884 20.3219053,71.3276654 21.4629278,69.9990809 L22,70.6384421 C21.2268071,71.5391774 20.1540276,71.9991958 19.0832954,72" id="Fill-1" fill="#FFD600" fill-rule="nonzero"></path>
                <path d="M80.7636466,19.0026297 C80.934535,19.0268657 81.108475,19.0307747 81.282415,19.0127932 C81.7622756,18.9611941 82.1673726,18.7469794 82.4229423,18.4076759 C82.6159546,18.1520256 82.7090277,17.7533049 82.5381394,17.5687988 C82.3451271,17.3592751 81.8805243,17.4835821 81.5692633,17.7314144 C81.1695065,18.0480455 80.8971532,18.5038379 80.7636466,19.0026297 M83.0843719,23 C82.078114,23 81.0688045,22.5520256 80.4462826,21.7123667 C79.9977006,21.1080313 79.7940077,20.3614072 79.8146059,19.6202558 C79.5842117,19.5123667 79.3698384,19.374769 79.1814034,19.2098081 C78.1827745,18.3365316 77.7616567,16.7635394 78.1339492,15.2953092 C78.4314781,14.1147833 79.1737744,13.0061834 80.3394773,12 L80.8895243,12.6692253 C79.8619053,13.5557924 79.2126821,14.5127221 78.960164,15.5142147 C78.6687383,16.6665956 78.9799993,17.8838664 79.7352648,18.5444918 C79.8039254,18.6039091 79.8779261,18.6594172 79.9557414,18.7086709 C80.1434134,18.058209 80.5111285,17.4648188 81.0459176,17.0402985 C81.6554703,16.556361 82.6029854,16.3656005 83.1591355,16.9675906 C83.6695119,17.5218905 83.5085411,18.399076 83.0981039,18.9432125 C82.6975843,19.4732765 82.0842171,19.8063255 81.3693849,19.8821606 C81.137465,19.9071784 80.9032564,19.9032693 80.6728622,19.8719972 C80.6980377,20.3442076 80.8452763,20.8062544 81.1252587,21.1830846 C81.8828129,22.2041222 83.4856544,22.4347548 84.4896235,21.6678039 L85,22.3690832 C84.4423241,22.7951671 83.7641109,23 83.0843719,23" id="Fill-3" fill="#FFD600" fill-rule="nonzero"></path>
                <path d="M29.1761672,8.37567778 C28.6844274,8.37567778 28.3896889,9.31448488 28.309514,9.60728119 C28.1583269,10.16189 28.0292834,10.7188226 27.981942,11.2416731 C28.7966723,10.9783114 29.4747235,10.3175833 29.6625619,9.52672345 C29.7404462,9.19829586 29.6770698,8.80402785 29.5083206,8.56777688 C29.383095,8.39194425 29.2517607,8.38109994 29.2082372,8.37722692 C29.1975472,8.37645235 29.1868572,8.37567778 29.1761672,8.37567778 L29.1761672,8.37567778 Z M33.782028,8.07978312 C33.5903717,8.07978312 33.4162774,8.16653758 33.2643268,8.3400465 C32.9940226,8.64601082 32.8481806,9.17273432 32.9085026,9.62122386 C33.0031855,10.32378 33.3987153,10.9868319 33.9622308,11.4082107 C34.2012285,11.0216886 34.3905942,10.6049574 34.5204012,10.169636 C34.6868597,9.60960498 34.7105305,9.15569328 34.5906498,8.78311389 C34.4806956,8.44074363 34.1729764,8.0890782 33.7972995,8.07978312 C33.792718,8.07978312 33.787373,8.07978312 33.782028,8.07978312 L33.782028,8.07978312 Z M45.134803,14.1363285 C44.9500189,14.1363285 44.7644711,14.1541441 44.5819776,14.1897753 C44.2887663,14.2478699 43.8848372,14.3787762 43.6298045,14.6769946 C43.4244038,14.916344 43.3610274,15.2556158 43.4786173,15.4825717 C43.5984981,15.7134005 43.9191979,15.8536018 44.2414249,15.8164214 C44.5537255,15.7800155 44.8851153,15.6034082 45.225668,15.2904725 C45.5440772,14.9992254 45.800637,14.6483346 45.9938206,14.2618126 C45.7158807,14.1797057 45.4249601,14.1363285 45.134803,14.1363285 L45.134803,14.1363285 Z M48.147091,17 C48.0966954,16.1378776 47.6645141,15.3059644 46.991808,14.7761425 C46.922323,14.7211464 46.8505473,14.6692487 46.7772445,14.6212239 C46.5344289,15.1115414 46.2076205,15.5592564 45.7983464,15.9341596 C45.3226416,16.369481 44.8316653,16.6204492 44.339162,16.6777691 C43.6580566,16.7567777 43.0097847,16.4384198 42.722682,15.8861348 C42.4386336,15.3384973 42.5440064,14.6235476 42.9845868,14.108443 C43.313686,13.7242448 43.8100072,13.4585592 44.4201005,13.3392719 C45.0416474,13.2168862 45.6906829,13.2602633 46.2954312,13.4500387 C46.5932239,12.2835011 46.3962225,10.9728892 45.6624307,10.0302091 C44.4857676,8.51897758 42.0812823,8.14949655 40.5174886,9.24012395 C39.9936789,9.60573197 39.5569162,10.1006971 39.0941921,10.6243222 C38.4337031,11.373354 37.750307,12.1479473 36.7759902,12.5375678 C35.9528607,12.86677 35.0266489,12.8582495 34.2119185,12.5305964 C33.534631,13.3601859 32.6481249,14.0154918 31.6562461,14.3865221 C30.4100981,14.8528272 28.7294781,14.8257165 27.7857042,13.7134005 C27.4161358,13.2796282 27.2244794,12.7722696 27.1504131,12.2308288 C25.7950743,12.2044926 24.448135,11.3702556 23.7028895,10.0898528 C23.0378191,8.94887687 22.8324185,7.45778465 23.1393741,6 L23.9747208,6.18048025 C23.7120523,7.42835008 23.8808016,8.69248642 24.4374449,9.6491092 C25.0269218,10.6607281 26.0714871,11.3245546 27.1206338,11.3625096 C27.1572852,10.7033308 27.3099994,10.0224632 27.4863843,9.37645237 C27.8322821,8.10689388 28.4668096,7.44771491 29.2784857,7.51355541 C29.6442363,7.54376454 29.9718083,7.73818742 30.2008795,8.05964372 C30.5147073,8.50038732 30.629243,9.15569328 30.4933273,9.72966694 C30.2130967,10.9078234 29.2021285,11.8474051 27.9964498,12.1378776 C28.0544812,12.518203 28.1896333,12.8613478 28.4324489,13.1487219 C29.1097365,13.9457785 30.3902452,13.9364833 31.360744,13.5731991 C32.1632573,13.2734314 32.8840684,12.7567777 33.4506382,12.1030209 C32.7000477,11.5422154 32.1892187,10.6816421 32.0617023,9.73896202 C31.9677831,9.03563133 32.1892187,8.25948876 32.6275085,7.76219983 C32.9482084,7.39736638 33.3758082,7.19674671 33.8179158,7.21301317 C34.5112384,7.23005418 35.1633281,7.76529819 35.4030895,8.51587913 C35.5779473,9.06196745 35.5565673,9.68474048 35.3374223,10.4206042 C35.1946345,10.9024012 34.9877068,11.3640589 34.7288562,11.7947327 C35.2923717,11.9674671 35.9177364,11.9496514 36.4621625,11.7312161 C37.2478772,11.4167312 37.8358269,10.7505809 38.4573738,10.0464756 C38.9330786,9.50735863 39.4248184,8.94965144 40.0333846,8.52594887 C41.982018,7.16731216 44.8675532,7.61037952 46.3328461,9.49341596 C47.2743293,10.7025562 47.5102728,12.3516654 47.0933629,13.8032533 C47.2407322,13.8892332 47.3819928,13.9852827 47.5163813,14.091402 C48.3799802,14.7722696 48.9350964,15.8404337 49,16.9488768 L48.147091,17 Z" id="Fill-5" fill="#30F8CF" fill-rule="nonzero"></path>
                <path d="M115.090685,18.766765 C115.849887,18.9152873 116.667009,18.753263 117.225845,18.2859429 C117.541267,18.0219032 117.808162,17.5898385 117.692325,17.2192829 C117.625797,17.0047507 117.442649,16.8824823 117.300983,16.8172226 C117.02861,16.6919538 116.677184,16.6784517 116.409507,16.7849677 C115.750487,17.0430064 115.406105,17.7556133 115.258962,18.1569235 C115.186172,18.3557033 115.130601,18.559734 115.090685,18.766765 M123.145282,21.5369305 C123.106931,21.5369305 123.065449,21.5406811 123.023184,21.5489323 C122.706197,21.6104416 122.339901,21.8909837 122.151275,22.2165325 C121.876552,22.6898535 121.781065,23.2456868 121.844462,23.7872681 C122.25224,23.6094914 122.632625,23.3769566 122.966048,23.0919137 C123.292427,22.8113717 123.488881,22.5503326 123.566367,22.2952943 C123.645417,22.0327549 123.578889,21.7499625 123.407481,21.6209432 C123.332344,21.5646847 123.246249,21.5369305 123.145282,21.5369305 M124.583073,27 C123.759689,27 122.937088,26.7494624 122.285113,26.2446367 C121.817068,25.8815823 121.464078,25.4082613 121.237882,24.8846827 C119.688951,25.26649 117.973309,25.0452067 116.630223,24.1855778 C114.985805,23.1324198 114.051281,21.2188828 114.139723,19.3451017 C113.947183,19.2595889 113.76247,19.1560734 113.587932,19.0345552 C112.415472,18.2229334 111.801065,16.7069561 112.057785,15.2622393 C112.294155,13.9367905 113.218505,12.7171076 114.533413,12 L114.966237,12.7298595 C113.877524,13.3231985 113.113625,14.3230985 112.921868,15.4032605 C112.719153,16.5396809 113.192676,17.7256088 114.100589,18.3549533 C114.153029,18.3909587 114.206252,18.4247137 114.26104,18.4569686 C114.306435,18.2619392 114.362788,18.0691603 114.432447,17.8793819 C114.770567,16.9559934 115.354449,16.2913938 116.077648,16.0078512 C116.579349,15.8113217 117.178885,15.8308246 117.679802,16.0603591 C118.105582,16.2553883 118.407698,16.5816872 118.531362,16.979997 C118.730164,17.6190928 118.443702,18.3797069 117.801118,18.9182878 C117.052872,19.5446317 116.006424,19.7779167 115.015547,19.6098915 C115.029635,21.119868 115.813884,22.653098 117.11627,23.4872231 C118.22768,24.1990798 119.685038,24.3813572 120.996815,24.0685603 C120.866107,23.3034455 120.985076,22.4985747 121.38581,21.8084713 C121.702797,21.2623893 122.277286,20.8370756 122.849428,20.726809 C123.258771,20.646547 123.638374,20.7283092 123.947533,20.960094 C124.402272,21.3021453 124.587769,21.9322398 124.407751,22.5285792 C124.283305,22.9396409 124.003104,23.3281993 123.54993,23.7175077 C123.110061,24.0940641 122.609144,24.3926089 122.073005,24.6123918 C122.244414,24.9919488 122.501134,25.3324998 122.836122,25.5912887 C123.841088,26.3699055 125.450286,26.339901 126.423162,25.5245287 L127,26.1561234 C126.330022,26.7172076 125.456547,27 124.583073,27" id="Fill-7" fill="#30F8CF" fill-rule="nonzero"></path>
                <path d="M134.924592,39.9566134 C134.175952,39.9566134 133.378575,40.438772 133.094938,41.142463 C132.745786,42.0078955 133.105325,43.1255222 133.929867,43.7418267 C134.604203,44.2462151 135.569365,44.4332529 136.488986,44.2592465 C136.824555,43.5685869 136.96118,42.785175 136.853318,42.0339581 C136.75025,41.3141697 136.322799,40.3613507 135.45591,40.047066 C135.287327,39.9857422 135.107557,39.9566134 134.924592,39.9566134 L134.924592,39.9566134 Z M126.00563,48 C125.924135,47.0042543 126.740688,46.2001457 127.587602,45.9203557 C128.504026,45.6191023 129.468389,45.8015408 130.113962,45.965582 C130.348062,46.0246062 130.580563,46.0920624 130.813065,46.1595186 C131.316419,46.3051627 131.792608,46.4423748 132.279984,46.4983328 C133.519993,46.6409107 134.834307,46.1986125 135.709186,45.3439117 C135.762717,45.2917864 135.813852,45.2388946 135.864187,45.1837032 C134.959747,45.1936683 134.068889,44.9338086 133.380173,44.4186884 C132.238437,43.5655207 131.767841,42.0569545 132.261607,40.8335442 C132.798519,39.502817 134.439614,38.7607988 135.773104,39.2444904 C137.005123,39.6921543 137.597165,40.918631 137.739382,41.9182093 C137.831264,42.561343 137.776135,43.2236403 137.593169,43.8529761 C138.6614,43.2481698 139.411637,42.1305431 139.494731,40.9377946 C139.591407,39.5449772 138.881916,38.260243 138.132477,36.9003871 C137.391028,35.5573953 136.62561,34.1691771 136.644785,32.6107853 C136.67275,30.378598 138.571115,28.3104519 140.876159,28 L141,28.849335 C139.115217,29.1030623 137.56201,30.7956 137.538839,32.6222836 C137.52206,33.9606761 138.201988,35.1940516 138.921866,36.4994826 C139.69767,37.9053313 140.499842,39.3587061 140.386387,40.9945192 C140.264943,42.7537465 138.965809,44.3826607 137.228037,44.9552719 C137.183295,44.9698363 137.138553,44.9836342 137.094609,44.9966655 C136.887674,45.3416121 136.636796,45.662029 136.346768,45.9448852 C135.281734,46.9843241 133.682984,47.5232072 132.174519,47.3499674 C131.609644,47.2855774 131.073531,47.1299682 130.554996,46.9804914 C130.332881,46.9161013 130.109967,46.8517113 129.885455,46.7949868 C129.03854,46.5803534 128.40016,46.55889 127.879227,46.7321298 C127.361492,46.9023035 126.852545,47.3982599 126.896488,47.9333103 L126.00563,48 Z" id="Fill-9" fill="#FFD600" fill-rule="nonzero"></path>
                <g id="Fill-11-Clipped" transform="translate(242.000000, 43.000000)">
                    <mask id="mask-2" fill="white">
                        <use xlink:href="#path-1"></use>
                    </mask>
                    <g id="path-3"></g>
                    <path d="M8.37310476,5.09730909 C8.31062857,5.09730909 8.24967619,5.1024 8.18948572,5.11258182 C7.72700952,5.18894546 7.35291428,5.60421818 7.3879619,6.00130909 C7.43748572,6.56203636 8.16739048,6.92421818 8.38986667,7.02167272 C8.91253331,7.25076364 9.48091427,7.36494546 10.0546285,7.3744 C10.0553905,7.3104 10.0546285,7.24567272 10.0523428,7.18167272 C10.035581,6.74967272 9.93043806,6.13585454 9.52815242,5.66094546 C9.23024758,5.30967272 8.78529524,5.09730909 8.37310476,5.09730909 M4.42567619,9.39694543 C4.28548572,9.39694543 4.15672381,9.43185457 4.05462857,9.51258181 C3.80472381,9.71112724 3.82605715,10.1424 4.00205715,10.4056728 C4.2512,10.7780364 4.73653333,10.9671272 5.0992,11.0602182 C5.47862857,11.1576728 5.87405715,11.1940364 6.26491428,11.1765818 C6.10110476,10.6158546 5.78415238,10.1242182 5.34834285,9.77221819 C5.0839619,9.55767276 4.72739048,9.39694543 4.42567619,9.39694543 M3.32548572,15.8056728 C3.30415238,15.8056728 3.28129524,15.8056728 3.2599619,15.8049454 C2.1232,15.7889454 1.06872381,15.3569454 0.366247619,14.6209454 L0.996342855,14.0733091 C1.54110476,14.6434909 2.37081905,14.9787636 3.27291428,14.9911272 C4.1704381,15.0042182 5.01386667,14.6929454 5.57539048,14.1380364 C6.12167619,13.5984 6.41729524,12.8165818 6.39215238,11.9838546 C5.8832,12.0158546 5.3712,11.9722182 4.87748572,11.8456728 C4.14834285,11.6587636 3.59748572,11.3125818 3.28358095,10.8434909 C2.90110476,10.2733091 2.88205715,9.38530905 3.50986667,8.8864 C4.22681905,8.31912728 5.25158095,8.62603638 5.90072381,9.15185457 C6.48891428,9.62894543 6.90948572,10.2951272 7.11139048,11.0493091 C7.64929524,10.9104 8.15824762,10.6653091 8.59100952,10.3234909 C9.27215242,9.78676362 9.75291427,9.0144 9.95177145,8.18094546 C9.2912,8.16203636 8.63672379,8.02530909 8.03405715,7.76130909 C7.14491428,7.37076364 6.59939048,6.75476364 6.5392,6.06967272 C6.46605715,5.25003636 7.14034285,4.46094546 8.0424381,4.3104 C8.80815242,4.18458182 9.65158097,4.51258182 10.1910095,5.14894546 C10.6260572,5.6624 10.8721524,6.35476364 10.9041524,7.15112728 C10.9064381,7.20494546 10.9072,7.25876364 10.9072,7.31185454 C11.9944381,7.13585454 13.0192,6.59330909 13.6851048,5.75549091 C14.8706285,4.26312728 14.8058667,1.97512728 13.5357715,0.546763636 L14.1864381,0.0202181818 C15.7041524,1.72785454 15.7826285,4.46312728 14.3639619,6.24712728 C13.5251048,7.30312728 12.2070095,7.96712728 10.8302476,8.13949091 C10.6237715,9.22967276 10.0180572,10.2529454 9.13424758,10.9504 C8.58186669,11.3860364 7.92891428,11.6922182 7.24015238,11.8558546 C7.24091428,11.8609454 7.24091428,11.8660364 7.24091428,11.8711272 C7.29729524,12.9547636 6.91329524,13.9867636 6.18872381,14.7031272 C5.47786667,15.4056728 4.43710476,15.8056728 3.32548572,15.8056728" id="Fill-11" fill="#FFFFFF" fill-rule="nonzero" mask="url(#mask-2)"></path>
                </g>
                <g id="Fill-14-Clipped" transform="translate(178.000000, 101.000000)">
                    <mask id="mask-4" fill="white">
                        <use xlink:href="#path-3"></use>
                    </mask>
                    <g id="path-5"></g>
                    <path d="M7.21823684,0.86681 C7.02955264,0.86681 6.8385,0.92001 6.64823684,1.02641 C6.21876316,1.26581 5.85639474,1.75721 5.7466579,2.24861 C5.52402632,3.23701 5.94797368,4.32271 6.76428948,5.07941 C7.45823684,4.51661 7.97928948,3.78371 8.22481579,2.98151 C8.37955264,2.47961 8.39613158,2.04281 8.27455264,1.68301 C8.14113158,1.28681 7.81428948,0.97601 7.4416579,0.89201 C7.36744736,0.87521 7.29323684,0.86681 7.21823684,0.86681 M3.45323684,7.00021 C2.38902632,7.00021 1.3216579,6.75171 0.413763158,6.26591 L0.869289474,5.59531 C2.17507894,6.29321 3.8653421,6.41431 5.28086842,5.91171 C5.55086842,5.81581 5.80981579,5.69751 6.05455264,5.56031 C5.08507894,4.62931 4.6035,3.32171 4.87981579,2.09531 C5.03928948,1.38481 5.5366579,0.72191 6.17771052,0.36351 C6.64902632,0.10031 7.16218421,0.01981 7.6603421,0.13321 C8.33692106,0.28651 8.89665785,0.79401 9.12086841,1.45831 C9.29060524,1.96021 9.27560524,2.54261 9.07665785,3.18731 C8.79876316,4.09521 8.22086842,4.92891 7.4503421,5.58061 C7.5735,5.65061 7.70218421,5.71361 7.83560526,5.76891 C9.27481579,6.36811 11.1624474,6.10701 12.4263948,5.13611 C13.6524474,4.19251 14.2848158,2.66301 14.0771842,1.14401 L14.9542894,1.05021 C15.1966579,2.82401 14.4506052,4.61601 13.005079,5.72691 C11.4861316,6.89591 9.20692103,7.20531 7.46139474,6.47801 C7.20402632,6.37161 6.96244736,6.24421 6.7366579,6.09791 C6.38455264,6.31491 6.00718421,6.49761 5.60928948,6.63831 C4.92797368,6.88121 4.19060526,7.00021 3.45323684,7.00021" id="Fill-14" fill="#FFD600" fill-rule="nonzero" mask="url(#mask-4)"></path>
                </g>
                <polygon id="Fill-17" fill="#D476D8" fill-rule="nonzero" points="98.1229035 26 96 25.4344775 96.877758 23 99 23.5655225"></polygon>
                <path d="M80.1586664,33 C78.9710246,32.6315395 77.8783382,32.0453778 77,31.303394 L78.6945366,30 C79.3361843,30.5405963 80.1335311,30.9692481 81,31.2381399 L80.1586664,33 Z" id="Fill-19" fill="#30F8CF" fill-rule="nonzero"></path>
                <polygon id="Fill-21" fill="#D476D8" fill-rule="nonzero" points="20.6432225 46 19 44.6612732 20.3567775 43 22 44.3387268"></polygon>
                <polygon id="Fill-23" fill="#30F8CF" fill-rule="nonzero" points="153.278181 16 152 13.003349 153.721246 12 155 14.996651"></polygon>
                <polygon id="Fill-25" fill="#D476D8" fill-rule="nonzero" points="196.27637 3 195 1.1691583 196.723006 0 198 1.83207045"></polygon>
                <polygon id="Fill-27" fill="#FFD600" fill-rule="nonzero" points="239.714023 28 238 26.6189006 239.285977 25 241 26.3810994"></polygon>
                <polygon id="Fill-29" fill="#30F8CF" fill-rule="nonzero" points="169.649286 70 168 68.5785015 170.350714 67 172 68.4209337"></polygon>
                <polygon id="Fill-31" fill="#30F8CF" fill-rule="nonzero" points="75.8053098 108 74 106.319986 76.1932154 104 78 105.679283"></polygon>
                <polygon id="Fill-33" fill="#30F8CF" fill-rule="nonzero" points="1.52493075 59 0 57.3301219 1.47506925 56 3 57.6692883"></polygon>
                <polygon id="Fill-35" fill="#FFD600" fill-rule="nonzero" points="15.9948257 16 15 14.0739807 17.0051743 13 18 14.9267063"></polygon>
                <polygon id="Fill-37" fill="#30F8CF" fill-rule="nonzero" points="58.2221116 9 57 6.13658804 58.7778884 5 60 7.86341192"></polygon>
            </g>
            <g id="Group-5" transform="translate(354.000000, 22.000000)">
                <polygon id="Fill-1" fill="#366B96" fill-rule="nonzero" points="21 98 27 98 27 66 21 66"></polygon>
                <g id="Fill-2-Clipped">
                    <mask id="mask-6" fill="white">
                        <use xlink:href="#path-5"></use>
                    </mask>
                    <g id="path-7"></g>
                    <path d="M50.1326999,79.8318328 C47.1507,74.1320224 39.1377,60.0806948 39.1377,60.0806948 C39.1377,60.0806948 48.1436999,67.2387293 44.1656999,59.6828672 C40.1876999,52.1284362 37.0047001,41.9208672 37.0047001,41.9208672 C37.0047001,41.9208672 48.5426999,53.0557466 43.1966999,45.6329707 C37.8566999,38.2087638 35.0157001,30.6529017 35.0157001,30.6529017 C35.0157001,30.6529017 42.5307001,34.7542466 41.6486999,33.56935 C36.2067001,26.2782293 27.4557,9.57662586 25.3077,0.562539655 C23.1536999,9.57662586 14.4027,26.2782293 8.96369999,33.56935 C8.07870001,34.7542466 15.5937,30.6529017 15.5937,30.6529017 C15.5937,30.6529017 12.7557,38.2087638 7.4127,45.6329707 C2.0697,53.0557466 13.6077,41.9208672 13.6077,41.9208672 C13.6077,41.9208672 10.4247,52.1284362 6.4437,59.6828672 C2.4657,67.2387293 11.4717,60.0806948 11.4717,60.0806948 C11.4717,60.0806948 3.46169999,74.1320224 0.4767,79.8318328 C-2.50530001,85.5316431 9.4767,75.5873845 9.4767,75.5873845 C9.4767,75.5873845 5.66069999,80.9179879 7.4127,80.8922293 C8.43570001,80.877919 17.8617,74.7244707 17.8617,74.7244707 C17.8617,74.7244707 12.7407,81.8209707 13.0737,82.2187983 C13.4097,82.6151948 21.9597001,76.9153845 21.9597001,76.9153845 L25.3077,81.5547983 L28.6497001,76.9153845 C28.6497001,76.9153845 37.2026999,82.6151948 37.5387,82.2187983 C37.8687,81.8209707 32.7507,74.7244707 32.7507,74.7244707 C32.7507,74.7244707 42.1766999,80.877919 43.1966999,80.8922293 C44.9487,80.9179879 41.1327,75.5873845 41.1327,75.5873845 C41.1327,75.5873845 53.1177,85.5316431 50.1326999,79.8318328" id="Fill-2" fill="#366B96" fill-rule="nonzero" mask="url(#mask-6)"></path>
                </g>
            </g>
            <g id="Group-5" transform="translate(309.000000, 41.000000)">
                <polygon id="Fill-1" fill="#366B96" fill-rule="nonzero" points="17 79 22 79 22 53 17 53"></polygon>
                <g id="Fill-2-Clipped">
                    <mask id="mask-8" fill="white">
                        <use xlink:href="#path-7"></use>
                    </mask>
                    <g id="path-9"></g>
                    <path d="M40.5779973,63.8654662 C38.1643314,59.3056179 31.6785147,48.0645559 31.6785147,48.0645559 C31.6785147,48.0645559 38.9680773,53.7909834 35.7482373,47.7462938 C32.5283973,41.702749 29.9520396,33.5366938 29.9520396,33.5366938 C29.9520396,33.5366938 39.2910324,42.4445972 34.9639173,36.5063766 C30.6416583,30.567011 28.3421196,24.5223214 28.3421196,24.5223214 C28.3421196,24.5223214 34.4248488,27.8033972 33.7109478,26.85548 C29.3061288,21.0225834 22.2229665,7.66130069 20.4843501,0.450031724 C18.7408772,7.66130069 11.6577148,21.0225834 7.25532423,26.85548 C6.53899482,27.8033972 12.6217242,24.5223214 12.6217242,24.5223214 C12.6217242,24.5223214 10.3246136,30.567011 5.99992659,36.5063766 C1.67523953,42.4445972 11.0142325,33.5366938 11.0142325,33.5366938 C11.0142325,33.5366938 8.43787482,41.702749 5.21560659,47.7462938 C1.99576659,53.7909834 9.28532895,48.0645559 9.28532895,48.0645559 C9.28532895,48.0645559 2.80194072,59.3056179 0.385846587,63.8654662 C-2.02781929,68.4253145 7.67055246,60.4699076 7.67055246,60.4699076 C7.67055246,60.4699076 4.58183718,64.7343903 5.99992659,64.7137834 C6.82795482,64.7023352 14.4574701,59.7795766 14.4574701,59.7795766 C14.4574701,59.7795766 10.3124725,65.4567766 10.5820066,65.7750386 C10.8539689,66.0921559 17.7744395,61.5323076 17.7744395,61.5323076 L20.4843501,65.2438386 L23.1894042,61.5323076 C23.1894042,61.5323076 30.1123032,66.0921559 30.3842655,65.7750386 C30.6513714,65.4567766 26.5088019,59.7795766 26.5088019,59.7795766 C26.5088019,59.7795766 34.1383173,64.7023352 34.9639173,64.7137834 C36.3820065,64.7343903 33.2932914,60.4699076 33.2932914,60.4699076 C33.2932914,60.4699076 42.9940914,68.4253145 40.5779973,63.8654662" id="Fill-2" fill="#366B96" fill-rule="nonzero" mask="url(#mask-8)"></path>
                </g>
            </g>
            <g id="Group-20" transform="translate(316.000000, 0.000000)">
                <path d="M10.6876721,28.4037186 C9.9635176,25.8360236 9.28419171,23.2990589 8.64452189,20.7962392 C6.04791074,20.5777119 3.40819514,20.3216253 0.733996004,20.0296866 C0.0529459332,19.9596896 -0.240164224,19.1624066 0.228812028,18.6638913 L11.1083714,7 L16.4533213,11.6949211 L22,16.1610716 L12.1308086,28.6751704 C11.7083851,29.2129523 10.8669866,29.0558859 10.6876721,28.4037186" id="Fill-1" fill="#B8E986" fill-rule="nonzero"></path>
                <g id="Fill-3-Clipped" transform="translate(5.000000, 0.000000)">
                    <mask id="mask-10" fill="white">
                        <use xlink:href="#path-9"></use>
                    </mask>
                    <g id="path-11"></g>
                    <path d="M21.4083692,19.727575 C14.1043692,14.274575 7.20483077,8.210825 0.902676923,1.709575 L1.48483077,1.105825 C7.75652308,7.575575 14.6222154,13.609575 21.8906769,19.036325 L21.4083692,19.727575 Z" id="Fill-3" fill="#366B96" fill-rule="nonzero" mask="url(#mask-10)"></path>
                </g>
                <path d="M34.8543457,45.515066 C33.7539373,43.0556075 32.6961143,40.6203972 31.6859871,38.212899 C29.1172319,38.4016885 26.5041878,38.5593016 23.8485583,38.6892026 C23.1774113,38.7255749 22.765184,37.9738812 23.1450464,37.4005849 L31.9346862,24 L37.8898376,27.8693171 L44,31.4840284 L36.3039549,45.5618304 C35.9734917,46.1663029 35.1302995,46.1403227 34.8543457,45.515066" id="Fill-6" fill="#F8DD1C" fill-rule="nonzero"></path>
                <path d="M49.6159583,34 C41.3946854,29.8433111 33.4479763,25.0269399 26,19.6804052 L26.4952574,19 C33.9084787,24.3206309 41.8169575,29.1145522 50,33.2505181 L49.6159583,34 Z" id="Fill-8" fill="#366B96" fill-rule="nonzero"></path>
                <path d="M61.0135901,56.6278038 C59.5385092,54.3900194 58.1099011,52.1676917 56.7329294,49.9659729 C54.1975804,50.5464573 51.6123161,51.1097675 48.9823002,51.6473167 C48.3161902,51.7881442 47.7912198,51.1166372 48.082105,50.494935 L54.8086116,36 L61.3457845,38.869791 L68,41.4613618 L62.4680164,56.4491932 C62.23221,57.0932217 61.3853724,57.1979837 61.0135901,56.6278038" id="Fill-10" fill="#B8E986" fill-rule="nonzero"></path>
                <path d="M75.7255654,44 C66.5910743,41.2369509 57.5983441,37.7818766 49,33.7307516 L49.4016559,33 C57.9600162,37.0326037 66.9073102,40.4708403 76,43.2221032 L75.7255654,44 Z" id="Fill-12" fill="#366B96" fill-rule="nonzero"></path>
                <g id="Fill-14-Clipped" transform="translate(78.000000, 45.000000)">
                    <mask id="mask-12" fill="white">
                        <use xlink:href="#path-11"></use>
                    </mask>
                    <g id="path-13"></g>
                    <path d="M13.9665545,20.72315 C12.1477364,18.70365 10.3824636,16.69465 8.67073636,14.69615 C6.24737273,15.68315 3.77219091,16.65615 1.24691818,17.6134 C0.607827273,17.8584 -0.0191727273,17.26515 0.172554545,16.5949 L4.58055455,0.94465 L11.5051909,2.7979 L18.4971909,4.34665 L15.3811909,20.3119 C15.2481909,20.9979 14.4260091,21.23765 13.9665545,20.72315" id="Fill-14" fill="#F8DD1C" fill-rule="nonzero" mask="url(#mask-12)"></path>
                </g>
                <g id="Fill-17-Clipped" transform="translate(75.000000, 43.000000)">
                    <mask id="mask-14" fill="white">
                        <use xlink:href="#path-13"></use>
                    </mask>
                    <g id="path-15"></g>
                    <path d="M27.9475132,7.90488 C18.7689523,6.42708 9.57979055,4.16988 0.634448109,1.19448 L0.901235924,0.36288 C9.80240819,3.32388 18.9473998,5.57028 28.0800237,7.03908 L27.9475132,7.90488 Z" id="Fill-17" fill="#366B96" fill-rule="nonzero" mask="url(#mask-14)"></path>
                </g>
            </g>
        </g>
    </g>
</svg>